<svg id="Layer_1" data-name="Layer 1" xmlns="http://www.w3.org/2000/svg" viewBox="0 0 362 355"><defs><style>.cls-1,.cls-2{fill:none;}.cls-2{stroke:#000;stroke-miterlimit:10;stroke-width:5px;}.cls-3{fill:#d6183b;}</style></defs><title>Untitled-4</title><path d="M71.86,208.92l-.53.08c-2.17,3.58-3.25,5.37-5.41,8.9-6.08.76-9.12,1-15.19,1.35l-.86,23.23-.53,0c-2.16,3.39-3.24,5.07-5.39,8.4-4.32.1-6.48.09-10.8-.07l2.52-68.16c2.11-3.1,3.16-4.66,5.27-7.82l0-.85a312,312,0,0,0,32.28-2.38l-.38,10.2-.53.08c-2.17,3.58-3.25,5.37-5.41,8.9-6.08.76-9.12,1-15.19,1.35l-.32,8.69a183.27,183.27,0,0,0,20.83-2.12Zm-22.21-6.48.45-12.08.29-7.84c3.52-.15,5.28-.27,8.81-.58l.85-.08.74-.07.85-.08c3.83-.38,5.74-.61,9.57-1.15l.26-7.18c-4.17.59-6.26.84-10.42,1.23l-.74.07-.85.08a163.21,163.21,0,0,1-16.86.76l-.55,15-1.87,50.7c3.22,0,4.83,0,8.05-.18l.26-7.18.37-10,.21-5.67.32-8.59a180,180,0,0,0,20.83-2l.26-7.18A180,180,0,0,1,49.65,202.43Z"/><path d="M119.37,212.69a20.17,20.17,0,0,1-4.78,11.89v.09l-1.81,3.24-1.59,2.89v-.09l-.11.13.11,0-.34.56a26.84,26.84,0,0,1-6.86,7.92,24.42,24.42,0,0,1-9.6,4.71l-1.6.38a17.53,17.53,0,0,1-7.11.3A13.71,13.71,0,0,1,80,242.31a12,12,0,0,1-3.75-4.45,12.49,12.49,0,0,1-1.2-6.09L76.36,196a17.13,17.13,0,0,1,2.53-8.23c1.58-2.68,2.37-4,4-6.73a23.86,23.86,0,0,1,7-9.29A27.2,27.2,0,0,1,101,166.14l1.6-.4a20.9,20.9,0,0,1,7.22-.64,13.65,13.65,0,0,1,5.86,1.86,10.33,10.33,0,0,1,3.82,4.07,11.66,11.66,0,0,1,1.21,5.95Zm-1.42-7.29.79-21.43.05-1.42.18-5a10.39,10.39,0,0,0-1.12-5.41,9.57,9.57,0,0,0-3.46-3.66,12.57,12.57,0,0,0-5.28-1.7,18.55,18.55,0,0,0-6.59.56l-1.6.4a24.26,24.26,0,0,0-6.67,2.76,25.72,25.72,0,0,0-5.51,4.39,21.77,21.77,0,0,0-3.8,5.46,15,15,0,0,0-1.55,6.06L82.07,222.1a11.43,11.43,0,0,0,1.12,5.6,10.59,10.59,0,0,0,3.45,4,12.4,12.4,0,0,0,5.27,2,16.59,16.59,0,0,0,6.58-.4l1.6-.4a22.45,22.45,0,0,0,6.67-2.92,26.35,26.35,0,0,0,5.52-4.72,23.75,23.75,0,0,0,3.82-5.83,16.35,16.35,0,0,0,1.55-6.25Zm-8.42,10.18a9.89,9.89,0,0,1-2.77,6.28,12.58,12.58,0,0,1-6.39,3.92l-1.6.4a7.46,7.46,0,0,1-6.22-.76,5.38,5.38,0,0,1-2.36-5l.08-2.17.21-5.66,1-27.85a9.42,9.42,0,0,1,2.77-6.15,12.71,12.71,0,0,1,6.39-3.77l1.6-.4a7.73,7.73,0,0,1,6.22.61,5.1,5.1,0,0,1,2.36,4.86l-.18,5-.84,22.85-.21,5.66ZM94.95,185.83a13,13,0,0,0-1.82.6L91.88,220a4.31,4.31,0,0,0,1.92,4,6,6,0,0,0,5,.62l1.6-.4a11,11,0,0,0,2.15-.83l1.23-33.23a4.37,4.37,0,0,0-2-4.11,6.48,6.48,0,0,0-5.22-.64Zm20.66,37a3.52,3.52,0,0,0,.45-.69Z"/><path d="M164.51,197.37a21.45,21.45,0,0,1-4.79,12.18v.09L157.9,213l-1.59,3v-.09l-.11.13.11,0-.34.59a30.55,30.55,0,0,1-6.88,8.46,28.53,28.53,0,0,1-9.63,5.63l-1.61.55a18.91,18.91,0,0,1-7.14,1.11,12.58,12.58,0,0,1-5.71-1.62,9.89,9.89,0,0,1-3.77-3.92,11.35,11.35,0,0,1-1.21-5.89l1.32-35.73a18.94,18.94,0,0,1,2.54-8.54l4-7.22a28.08,28.08,0,0,1,7-10.12,30.42,30.42,0,0,1,11.16-6.85l1.61-.56a21.07,21.07,0,0,1,7.25-1.29,12.67,12.67,0,0,1,5.88,1.39,9.28,9.28,0,0,1,3.83,3.79,11.16,11.16,0,0,1,1.21,5.85Zm-1.43-7.18.79-21.43.05-1.42.18-5A9.9,9.9,0,0,0,163,157a8.57,8.57,0,0,0-3.47-3.4,11.67,11.67,0,0,0-5.3-1.27,18.76,18.76,0,0,0-6.61,1.16L146,154a26.67,26.67,0,0,0-6.69,3.45,30,30,0,0,0-5.53,5,25.53,25.53,0,0,0-3.82,5.9,16.23,16.23,0,0,0-1.55,6.23l-1.32,35.69a10.48,10.48,0,0,0,1.12,5.43,8.88,8.88,0,0,0,3.47,3.59,11.54,11.54,0,0,0,5.3,1.41,17.86,17.86,0,0,0,6.61-1.09l1.61-.56a25.84,25.84,0,0,0,6.69-3.52,30.2,30.2,0,0,0,5.54-5.15,26.19,26.19,0,0,0,3.82-6.08,17,17,0,0,0,1.56-6.34ZM154.64,201a10.71,10.71,0,0,1-2.78,6.49,14.44,14.44,0,0,1-6.41,4.49l-1.61.56q-3.76,1.3-6.24-.11a4.75,4.75,0,0,1-2.37-4.71l.08-2.17.21-5.66,1-27.85a10.52,10.52,0,0,1,2.78-6.43,14.49,14.49,0,0,1,6.41-4.43l1.61-.56q3.75-1.3,6.25,0a4.64,4.64,0,0,1,2.37,4.65l-.18,5-.84,22.85-.21,5.66ZM140,172.69a14.4,14.4,0,0,0-1.83.8l-1.24,33.61a3.81,3.81,0,0,0,1.92,3.78,6,6,0,0,0,5,.1l1.61-.56a12.48,12.48,0,0,0,2.16-1l1.23-33.23a3.92,3.92,0,0,0-2-3.91,6.33,6.33,0,0,0-5.24-.11Zm20.73,35a3.87,3.87,0,0,0,.45-.72Z"/><path d="M191.23,136.13a20.52,20.52,0,0,1,7.25-1.36,12.46,12.46,0,0,1,5.88,1.4,9.26,9.26,0,0,1,3.83,3.87A11.49,11.49,0,0,1,209.4,146l-1.32,35.69a17.5,17.5,0,0,1-1.33,6,29.49,29.49,0,0,1-3.23,5.84l-2,3.7-1.59,3v-.09l-.11.13.11,0-.34.59A31.79,31.79,0,0,1,183,214.94c-7.47,2.73-11.21,4.11-18.68,6.83l2.51-68.07,5.34-9.77,0-.85C179.83,140.3,183.63,138.89,191.23,136.13Zm-9.82,5.08L173.9,144l-.55,15-1.87,50.6,7.51-2.75,9.77-3.57a27,27,0,0,0,6.7-3.59,30.83,30.83,0,0,0,5.54-5.15,26.48,26.48,0,0,0,3.82-6,16.54,16.54,0,0,0,1.56-6.28l.29-7.93.79-21.34.05-1.42.18-5a10.24,10.24,0,0,0-1.13-5.38,8.53,8.53,0,0,0-3.47-3.48,11.46,11.46,0,0,0-5.3-1.27,18.33,18.33,0,0,0-6.61,1.23Zm17.1,36-.21,5.76-.08,2.17a10.84,10.84,0,0,1-2.78,6.45,14.69,14.69,0,0,1-6.42,4.6l-9.12,3.33.37-10,.21-5.76.31-8.5.26-7.18L181.5,156l.29-7.84,9.12-3.33q3.76-1.37,6.25,0a4.62,4.62,0,0,1,2.37,4.65l-.18,5Zm-15.36-20-1.48,40,7.41-2.7a12.89,12.89,0,0,0,2.16-1.06l1.22-33.15a3.84,3.84,0,0,0-2-3.86,6.29,6.29,0,0,0-5.24,0Zm21.62,33.94a.81.81,0,0,0-.23.45Z"/><path d="M229.24,190.85l-.54.17-5.45,9.85c-4.37,1.41-6.56,2.14-10.93,3.64l2.52-68.16,5.33-9.63,0-.85c4.63-1.54,6.95-2.3,11.57-3.74Zm.77-66.68c-3.26,1-4.89,1.56-8.14,2.63l-2.43,65.71c3.26-1.08,4.89-1.61,8.14-2.63Z"/><path d="M272.53,179.79l-.53.1c-2.17,3.67-3.25,5.52-5.42,9.23-10.76,2.43-21.25,5.14-31.86,8.18l2.51-68.07c2.13-3.78,3.19-5.66,5.32-9.41l0-.85c10.83-3,21.49-5.54,32.48-7.81l-.37,10.15-.53.1c-2.17,3.69-3.25,5.54-5.42,9.27-6.1,1.26-9.16,2-15.27,3.55l-.32,8.59c8.38-2.15,12.57-3.11,20.93-4.66l-.37,10.15-.53.1c-2.17,3.69-3.25,5.54-5.42,9.27-6.1,1.26-9.16,2-15.27,3.55l-.48,13c8.38-2.15,12.57-3.11,20.93-4.66Zm-22.32-3.58.37-10,.21-5.67.32-8.59c8.38-2.19,12.57-3.17,20.93-4.78l.26-7c-8.36,1.61-12.55,2.59-20.93,4.78l.45-12.18.29-7.84c3.55-.93,5.32-1.37,8.87-2.2l.75-.17.85-.2.75-.17c3.89-.88,5.83-1.29,9.71-2l.26-7.08c-4.18.81-6.27,1.25-10.46,2.21l-.85.2-.75.17c-6.79,1.59-10.19,2.49-17,4.42l-.55,14.9-1.87,50.62c3.25-.92,4.88-1.37,8.13-2.22,5.13-1.34,7.7-2,12.82-3.1,3.25-.72,4.87-1.06,8.11-1.68l.26-7.18C262.78,173,258.6,174,250.21,176.21Z"/><path d="M320.94,130.4l-.53,0c-2.15,3.23-3.23,4.86-5.38,8.14-3.68,0-5.53,0-9.22.18,3.88,3.79,5.82,5.73,9.7,9.74a16.44,16.44,0,0,1,3.41,5.17,14.59,14.59,0,0,1,.94,6,14.86,14.86,0,0,1-1.32,5.67,16.82,16.82,0,0,1-3.3,4.79l-2.13,3.2-1.35,2.08v-.09l-.11.09h.11l-.34.47a19.53,19.53,0,0,1-6.8,6.25A22.9,22.9,0,0,1,295.1,185l-1.59.15a20.18,20.18,0,0,1-7.08-.47,15.93,15.93,0,0,1-5.67-2.68,12.67,12.67,0,0,1-3.75-4.52,12.46,12.46,0,0,1-1.2-6.09l.34-9.07c2.12-3.53,3.18-5.28,5.3-8.77l0-.85c2.68-.41,4-.6,6.71-.94-2.5-2.24-3.75-3.35-6.26-5.52a12.63,12.63,0,0,1-3.8-4.6,13,13,0,0,1-1-5.89,17.1,17.1,0,0,1,2.53-8.23c1.58-2.63,2.37-3.94,3.95-6.55a21.29,21.29,0,0,1,7-9,20.23,20.23,0,0,1,11.06-4.23l1.59-.11a17.81,17.81,0,0,1,7.16,1,16.57,16.57,0,0,1,5.8,3.49,15.76,15.76,0,0,1,3.77,5.37,14.89,14.89,0,0,1,1.19,6.49ZM319.49,124a13.18,13.18,0,0,0-1.11-5.88,14.37,14.37,0,0,0-3.42-4.8,15.25,15.25,0,0,0-5.23-3.13,16.12,16.12,0,0,0-6.53-.88l-1.59.11a18.22,18.22,0,0,0-6.63,1.75,20.25,20.25,0,0,0-5.49,3.82,19,19,0,0,0-3.79,5.25,14.88,14.88,0,0,0-1.55,6,11.74,11.74,0,0,0,1,5.49,12.78,12.78,0,0,0,3.55,4.31c7.79,6.91,11.68,10.53,19.45,18.23a6.87,6.87,0,0,1,2,5.24,7.67,7.67,0,0,1-2.75,5.63A10.19,10.19,0,0,1,301,167.7l-1.59.11a8.46,8.46,0,0,1-6.18-1.73,6.16,6.16,0,0,1-2.35-5.3l.08-2.08.21-5.76c-3.23.36-4.85.57-8.09,1.05l-.29,7.84a11.83,11.83,0,0,0,1.12,5.66,12,12,0,0,0,3.44,4.28,15,15,0,0,0,5.25,2.6,18.88,18.88,0,0,0,6.54.61l1.59-.11a20.88,20.88,0,0,0,6.62-1.48,19.58,19.58,0,0,0,5.47-3.29,16.09,16.09,0,0,0,3.77-4.73,14.24,14.24,0,0,0,.73-11.23,13.82,13.82,0,0,0-3.16-4.67v-.09c-7.88-8.07-11.82-11.86-19.73-19.07a6.11,6.11,0,0,1-2.25-5.12A8.49,8.49,0,0,1,295,119.3a9.83,9.83,0,0,1,6.35-2.85l1.59-.11a8,8,0,0,1,6.17,2,6.85,6.85,0,0,1,2.34,5.56l-.18,4.91c3.22-.06,4.83,0,8,0Zm-26.7,32-.17,4.63a5,5,0,0,0,1.91,4.28,6.78,6.78,0,0,0,5,1.42l1.59-.11a10.82,10.82,0,0,0,1.6-.28,6.82,6.82,0,0,0-.55-1,7.65,7.65,0,0,0-.76-1C297.95,160.66,296.23,159.07,292.78,156Zm2.88-29.35a10.23,10.23,0,0,0-1.6.35,4.17,4.17,0,0,0,1.61,2.19c3.44,3.17,5.16,4.79,8.59,8.12l.17-4.63a5.58,5.58,0,0,0-2-4.6,6.64,6.64,0,0,0-5.18-1.58Z"/><path d="M174.21,257.34c2.72,5.12-.63,16.31-11.89,18.57-10.12,2-17.58-5.88-18.59-15.93-1.33-13.19,7.07-26.76,19.92-30.12,6.83-1.79,12.48,1.2,13.15,6.61.33,2.65-.51,5.86-3,9.3a1.49,1.49,0,0,1-1-.5A15.28,15.28,0,0,0,173.8,238c-.55-4.49-3.8-7.3-10.88-5.59-11.39,2.76-15.7,15.11-14.42,25.95,1.33,11.28,7.38,16.55,15.22,14.92,7.3-1.51,10.19-8.43,9-15.61A2,2,0,0,1,174.21,257.34Z"/><path d="M216.09,244.58c-1.08,8.18-5.14,17.6-11.86,19.83-4.13,1.37-6.15-1.59-6.72-6.25-.46-3.74.75-9.39.28-13.19s-1.32-6.2-4.21-5.29c-6.08,1.92-8.69,13.68-8.82,21a66,66,0,0,0,.16,7.76,7.21,7.21,0,0,1-3.87,2.45c-.62-14.89-2.45-36.07.7-44.66.45-1.22,2.39-2,3.9-2.7.45,3.68-.05,14-.42,24,1.71-5.09,4.6-9.53,9.26-11s6.65,1.13,7.27,6.19c.47,3.85-.67,10-.17,14.06.41,3.34,1.44,5.22,4.15,4.31,4.36-1.46,7.87-9.88,8.36-16.3Z"/><path d="M248.68,233.08c-1.92,6.37-6,11.12-10.87,12.87a11.87,11.87,0,0,1-2,.58c-1.82,4.62-5,8.6-9.9,10.34-6.05,2.16-11.32-1.7-12.24-9.18-.75-6.1,1.55-15.29,9-20l.31.55a22.76,22.76,0,0,0-5.4,17.47c.69,5.58,3.4,10.15,9.45,8a11.31,11.31,0,0,0,6.62-7c-5.54-.17-9.29-5.19-10.07-11.46-.6-4.83,1-9.36,5-10.82,5.23-1.88,8.3,3.09,9,8.55a28.4,28.4,0,0,1-.92,11,14.64,14.64,0,0,0,1.54-.49c4.11-1.47,7-5.27,8.43-10.27Zm-13.86,3.07c-.42-3.39-3.13-9.93-6.48-8.73-1.88.68-2.57,3-2,7.4.47,3.8,2.67,9.25,8.09,9.35A23.68,23.68,0,0,0,234.82,236.15Z"/><path d="M266.4,227c-1.2,8.16-5.16,17.41-11.87,19.73-4.83,1.67-7.25-1.55-7.89-6.72-.74-6,.66-17,.27-20.26a12.92,12.92,0,0,1,3.88-2.91c.55,4.49-1.18,15.29-.41,21.56.47,3.8,2.11,6.21,5.65,5,4.36-1.5,7.87-9.84,8.37-16.22Zm-20.87-19.49a4.53,4.53,0,0,1,2.9-4.37,2.67,2.67,0,0,1,3.69,2.09,4.46,4.46,0,0,1-2.9,4.36A2.69,2.69,0,0,1,245.52,207.48Z"/><path d="M292.73,219.56c-1.71,7.53-6.32,17-16.67,20.1-7.16,2.17-11.15-2.34-11.9-8.44-.84-6.85,2.62-20.1,11.92-22.82,5.81-1.7,7.72,1.87,8,3.95a5.24,5.24,0,0,1-4,5.76l-.34-.26a8.15,8.15,0,0,0,1-4.74c-.34-2.76-2.31-3.28-4.26-2.71-6.28,1.84-9.11,11.26-8.13,19.2.61,4.95,3.45,8.55,9.25,6.82,8.58-2.56,12.49-11.74,13.19-17Z"/><path d="M319.79,214.51c-1.75,7.22-6.62,16-17.21,18.24-7.36,1.56-11.37-3.15-12.12-9.25-.84-6.85,2.71-19.82,12.36-21.7,5.75-1.12,7.59,2.34,7.86,4.53.67,5.41-5.59,10.94-16.27,13.89,0,.65.1,1.34.18,2,.61,4.95,3.41,8.72,9.45,7.48,8.8-1.8,13-10.41,13.68-15.48Zm-12.92-7.76c-.35-2.82-2.12-3.26-3.74-2.95-5.51,1.07-8.5,7.72-8.71,14.52C303.9,215.55,307.43,211.3,306.87,206.75Z"/><ellipse class="cls-1" cx="186" cy="215.5" rx="170" ry="149.5"/><ellipse class="cls-1" cx="176.5" cy="193.5" rx="185.5" ry="161.5"/><ellipse class="cls-1" cx="183.5" cy="193.5" rx="167.5" ry="153.5"/><path d="M185.23,121.52c2.4-2.78,3.59-4.22,6-7.17l.54-.7a6.19,6.19,0,0,0,.5-.77,4.53,4.53,0,0,0,.35-.82,2.19,2.19,0,0,0,.09-.85,2,2,0,0,0-.29-.9,2,2,0,0,0-.6-.6,2.24,2.24,0,0,0-.81-.32,2.85,2.85,0,0,0-1,0,2.73,2.73,0,0,0-1.7.87,2.77,2.77,0,0,0-.68,1.78c-1.21.05-1.82.07-3,.09A5.44,5.44,0,0,1,185,110a4.82,4.82,0,0,1,1.07-1.62,5.62,5.62,0,0,1,1.63-1.11,8.21,8.21,0,0,1,4.24-.64,4.87,4.87,0,0,1,1.8.59,3.66,3.66,0,0,1,1.3,1.28,4.66,4.66,0,0,1,.62,2,5.46,5.46,0,0,1-.47,2.9,12.1,12.1,0,0,1-1.66,2.55c-1.9,2.3-2.85,3.43-4.76,5.63,3.13-.39,4.68-.65,7.79-1.25l.24,2.58a95.82,95.82,0,0,1-11.27,1.63Z"/><path d="M206.51,112.07a16.49,16.49,0,0,1,0-3.51,11,11,0,0,1,.62-2.61,7.28,7.28,0,0,1,1-1.86,6.65,6.65,0,0,1,1.24-1.24,6.39,6.39,0,0,1,1.26-.75,8.62,8.62,0,0,1,1.09-.4,7.86,7.86,0,0,1,1.1-.21,4.77,4.77,0,0,1,1.33,0,4,4,0,0,1,1.4.5,4.32,4.32,0,0,1,1.3,1.21,7.75,7.75,0,0,1,1.05,2.15,14.92,14.92,0,0,1,.63,3.34,16.71,16.71,0,0,1,0,3.52,11.24,11.24,0,0,1-.61,2.63,7.51,7.51,0,0,1-1,1.89,6.7,6.7,0,0,1-1.23,1.26,6.27,6.27,0,0,1-1.26.76,8.19,8.19,0,0,1-1.08.4,7.47,7.47,0,0,1-1.1.21,4.64,4.64,0,0,1-1.33,0,4.05,4.05,0,0,1-1.4-.53,4.44,4.44,0,0,1-1.31-1.24,8,8,0,0,1-1.05-2.17A15,15,0,0,1,206.51,112.07Zm2.82-.75a17.49,17.49,0,0,0,.27,1.8,7.51,7.51,0,0,0,.62,1.85,3.32,3.32,0,0,0,1.11,1.31,2,2,0,0,0,1.75.17,2.86,2.86,0,0,0,1.63-1.13,5.37,5.37,0,0,0,.82-1.85,9.39,9.39,0,0,0,.25-2.1q0-1.07-.06-1.86a17.43,17.43,0,0,0-.27-1.8,7.35,7.35,0,0,0-.62-1.85,3.25,3.25,0,0,0-1.11-1.3,2,2,0,0,0-1.75-.17,2.87,2.87,0,0,0-1.63,1.12,5.34,5.34,0,0,0-.82,1.84,9.41,9.41,0,0,0-.25,2.09A18.57,18.57,0,0,0,209.33,111.32Z"/><path d="M233.41,99l-2.85,3.84-1.82-1.5c1.85-2.29,2.78-3.43,4.63-5.7l2.56-.71,1.55,16.92-2.82.78Z"/><path d="M249.89,91.62A96.08,96.08,0,0,1,261.33,90l.24,2.63c-2.18,6-3.27,9-5.43,15.13-1.34.21-2,.32-3.34.57C255,102.1,256.13,99,258.36,93c-3.3.41-4.94.68-8.22,1.32Z"/><circle class="cls-1" cx="188.5" cy="166.5" r="188.5"/><ellipse class="cls-2" cx="179.5" cy="184.54" rx="166" ry="164.96"/><path class="cls-3" d="M141.16,138.61a4.2,4.2,0,0,1,1,5.19,3.32,3.32,0,0,1-4.74.83L104.6,117.84l-1.24-1L81.41,155.35a3.31,3.31,0,0,1-4.72.94,4.2,4.2,0,0,1-.92-5.22l24.54-36.71-8.55-7c-4.21,4.82-11.8,4.7-17.32-.46-5.91-5.42-12.09-15.93-9-21.29,3.39-5.13,14.47-2.54,21.17,1.59,6.33,3.83,9.18,11.62,6.65,17.72l9.09,6.39v0s.18.11,0,0l5.77-8.64c-2.71-3.4-2.37-8.95.34-12.58,3.1-4.15,14.53-19.84,15-19.49S116,82.87,110.88,91.26l1.31,1c5.69-8,13.61-19.84,14.07-19.5s-7,12.54-11.94,21.13l1.3,1c5.44-8.18,13-20.32,13.44-20s-6.66,12.82-11.32,21.59l1.3,1c5.18-8.37,12.38-20.78,12.83-20.45s-11,22.5-11,22.54,2.42-4.72,0,0c-2.32,4.5-6.66,6.54-10.46,4.9l-5.11,9Z"/></svg>